<?xml version="1.0" standalone="no"?>
<!DOCTYPE svg PUBLIC "-//W3C//DTD SVG 20010904//EN"
 "http://www.w3.org/TR/2001/REC-SVG-20010904/DTD/svg10.dtd">
<svg version="1.0" xmlns="http://www.w3.org/2000/svg"
 width="96.000000pt" height="96.000000pt" viewBox="0 0 96.000000 96.000000"
 preserveAspectRatio="xMidYMid meet">
<metadata>
Created by potrace 1.11, written by Peter Selinger 2001-2013
</metadata>
<g transform="translate(0.000000,96.000000) scale(0.100000,-0.100000)"
fill="#000000" stroke="none">
<path d="M668 853 c-37 -10 -96 -133 -116 -244 -25 -137 -11 -230 42 -264 22
-15 24 -24 28 -110 3 -106 12 -122 69 -131 28 -5 39 -1 62 21 l27 28 0 329 0
329 -25 24 c-23 24 -48 29 -87 18z m47 -374 c0 -272 -2 -314 -15 -314 -12 0
-16 19 -18 100 l-3 100 -41 28 -40 28 6 92 c3 51 13 117 22 147 20 68 62 142
77 137 9 -3 12 -86 12 -318z"/>
<path d="M173 833 c-10 -3 -13 -38 -13 -124 0 -126 9 -165 48 -206 20 -20 21
-29 15 -170 -5 -126 -3 -154 11 -181 27 -52 75 -66 120 -37 41 27 48 60 42
220 -4 138 -3 149 16 169 38 39 48 80 48 195 0 122 -4 141 -30 141 -24 0 -30
-19 -30 -90 0 -71 -6 -90 -30 -90 -24 0 -30 19 -30 93 0 70 -9 91 -36 85 -16
-3 -19 -14 -22 -68 -3 -90 -9 -110 -31 -110 -25 0 -31 19 -31 100 0 53 -4 69
-16 74 -9 3 -16 6 -17 5 -1 0 -8 -3 -14 -6z m193 -232 c27 -5 30 -9 23 -28 -4
-12 -20 -29 -34 -39 l-26 -17 7 -166 c5 -145 4 -169 -10 -180 -13 -11 -19 -11
-32 -1 -13 12 -14 37 -9 178 l6 165 -30 26 c-16 14 -32 36 -35 47 -6 18 -3 21
18 17 13 -3 32 0 43 6 10 6 25 8 33 4 8 -3 29 -8 46 -12z"/>
</g>
</svg>
